<?xml version="1.0" standalone="no"?>
<!DOCTYPE svg PUBLIC "-//W3C//DTD SVG 20010904//EN"
 "http://www.w3.org/TR/2001/REC-SVG-20010904/DTD/svg10.dtd">
<svg version="1.0" xmlns="http://www.w3.org/2000/svg"
 width="727.000000pt" height="506.000000pt" viewBox="0 0 727.000000 506.000000"
 preserveAspectRatio="xMidYMid meet">

<g transform="translate(0.000000,506.000000) scale(0.100000,-0.100000)"
fill="#000000" stroke="none">
<path d="M2435 4024 c-545 -327 -1198 -720 -1452 -872 -254 -152 -462 -279
-463 -282 0 -3 242 -48 537 -100 l537 -95 38 -199 37 -198 -23 -32 c-48 -63
-46 -121 8 -184 29 -35 35 -53 56 -176 16 -95 27 -136 37 -136 7 0 13 -6 13
-12 0 -15 45 -547 86 -1013 15 -170 30 -320 35 -332 18 -49 102 -74 202 -61
99 13 187 76 187 134 0 20 -153 562 -326 1153 -30 103 -41 156 -34 161 7 4 2
50 -16 145 -24 121 -25 142 -14 174 28 78 3 155 -59 180 -28 12 -30 17 -55
149 -14 75 -28 157 -32 181 l-7 43 29 -6 c16 -3 108 -19 204 -36 96 -17 506
-88 910 -159 404 -71 794 -139 865 -151 l130 -23 105 65 c58 36 499 301 980
590 1580 950 1823 1097 1809 1102 -8 2 -441 79 -964 171 -522 91 -1269 222
-1658 291 -390 68 -709 124 -711 124 -1 0 -447 -268 -991 -596z"/>
<path d="M4627 2582 l-739 -445 -851 151 c-469 82 -853 149 -853 148 -7 -5
131 -688 147 -730 27 -74 86 -163 151 -227 300 -300 880 -428 1510 -334 237
36 512 121 723 224 374 184 633 426 731 686 62 166 61 230 -11 627 -31 172
-59 320 -63 329 -6 12 -158 -76 -745 -429z"/>
</g>
</svg>
